<svg xmlns="http://www.w3.org/2000/svg" viewBox="0 0 380 100" width="380" height="100">
  <defs>
    <linearGradient id="tg" x1="0%" y1="0%" x2="0%" y2="100%">
      <stop offset="0%" stop-color="#60a5fa"/>
      <stop offset="100%" stop-color="#3b82f6"/>
    </linearGradient>
    <linearGradient id="txt" x1="0%" y1="0%" x2="100%" y2="0%">
      <stop offset="0%" stop-color="#f1f5f9"/>
      <stop offset="100%" stop-color="#cbd5e1"/>
    </linearGradient>
  </defs>

  <!-- Ergo octagon -->
  <g transform="translate(6,6) scale(0.0815)">
    <path d="M545.5 1079.98c-2.1,0 -4.26,-0.21 -6.39,-0.63 -2.1,-0.4 -4.18,-1.01 -6.18,-1.81l-359.57 -144.35c-4.16,-1.67 -7.91,-4.13 -11.04,-7.21 -3.13,-3.06 -5.66,-6.74 -7.39,-10.87l-152.21 -356.33c-0.87,-2.05 -1.54,-4.17 -1.99,-6.33 -0.45,-2.14 -0.69,-4.35 -0.71,-6.58l-0.02 -0.39c0.02,-2.18 0.23,-4.33 0.64,-6.41 0.41,-2.09 1.02,-4.16 1.83,-6.17l144.34 -359.54c1.67,-4.17 4.13,-7.92 7.21,-11.06 3.06,-3.12 6.75,-5.66 10.87,-7.39l356.33 -152.19c2.05,-0.88 4.17,-1.54 6.33,-1.99 2.15,-0.45 4.37,-0.69 6.6,-0.71 0.05,-0.03 0.55,-0.03 0.6,0 2.14,0.02 4.24,0.23 6.27,0.63 2.05,0.41 4.08,1.01 6.07,1.8l359.56 144.34c4.16,1.67 7.91,4.13 11.05,7.22 3.12,3.06 5.65,6.74 7.39,10.87l152.2 356.29c1.76,4.12 2.67,8.51 2.71,12.92 0.04,4.39 -0.77,8.8 -2.46,12.96l-144.34 359.54c-1.66,4.15 -4.13,7.91 -7.21,11.05 -3.06,3.13 -6.74,5.66 -10.87,7.4l-356.29 152.19c-2.13,0.91 -4.31,1.6 -6.5,2.04 -2.3,0.48 -4.59,0.71 -6.83,0.71zm-313.83 -224.77l313.15 125.69 310.32 -132.52 125.74 -313.15 -132.52 -310.32 -313.16 -125.74 -310.41 132.57 -125.7 313.14 132.58 310.33z"
          fill="url(#tg)"/>
  </g>

  <!-- Citadel tower -->
  <g transform="translate(50,51)">
    <path d="
      M-20,-8 L-20,-14 L-18,-14 L-18,-16 L-15,-16 L-15,-14 L-13,-14 L-13,-16 L-10,-16 L-10,-14
      L-10,-8 L-7,-8 L-7,-22 L-5,-22 L-5,-25 L-2,-25 L-2,-22 L0,-22 L0,-25 L2,-25 L2,-22
      L5,-22 L5,-25 L7,-25 L7,-22 L7,-8 L10,-8
      L10,-14 L10,-16 L13,-16 L13,-14 L15,-14 L15,-16 L18,-16 L18,-14 L20,-14 L20,-8
      L20,8 L4,8 L4,2 Q0,-2 -4,2 L-4,8 L-20,8 Z"
      fill="url(#tg)"/>
    <rect x="-2" y="-18" width="4" height="5" rx="0.8" fill="white" opacity="0.25"/>
    <rect x="-2" y="-10" width="4" height="5" rx="0.8" fill="white" opacity="0.25"/>
    <rect x="-17" y="-11" width="3.5" height="4" rx="0.8" fill="white" opacity="0.2"/>
    <rect x="13.5" y="-11" width="3.5" height="4" rx="0.8" fill="white" opacity="0.2"/>
  </g>

  <!-- Wordmark only, vertically centered -->
  <text x="105" y="52" font-family="Inter, -apple-system, BlinkMacSystemFont, 'Segoe UI', Helvetica, Arial, sans-serif"
        font-size="42" font-weight="700" letter-spacing="6" fill="url(#txt)">CITADEL</text>
</svg>
